<?xml version="1.0" standalone="no"?>
<!DOCTYPE svg PUBLIC "-//W3C//DTD SVG 20010904//EN"
 "http://www.w3.org/TR/2001/REC-SVG-20010904/DTD/svg10.dtd">
<svg version="1.0" xmlns="http://www.w3.org/2000/svg"
 width="736.000000pt" height="552.000000pt" viewBox="0 0 736.000000 552.000000"
 preserveAspectRatio="xMidYMid meet">

<g transform="translate(0.000000,552.000000) scale(0.100000,-0.100000)"
fill="#000000" stroke="none">
<path d="M3555 4569 c-348 -33 -816 -200 -1417 -506 -215 -109 -248 -129 -248
-149 0 -42 41 -236 62 -291 23 -63 49 -93 79 -93 12 0 89 51 173 114 133 100
306 218 419 285 45 28 44 40 12 -171 -44 -296 -105 -771 -112 -874 -11 -192
12 -202 140 -56 47 53 108 119 136 147 42 41 51 55 51 85 0 19 3 66 7 104 l6
69 76 49 c172 112 438 222 679 283 396 99 879 107 1181 19 65 -19 162 -66 210
-102 l34 -25 -54 -17 c-30 -9 -73 -26 -95 -38 -125 -64 -321 -249 -470 -442
l-79 -103 -5 144 c-5 129 -8 149 -30 188 -70 125 -219 104 -442 -61 -87 -65
-268 -243 -373 -367 l-70 -83 -7 102 c-11 168 -69 248 -170 237 -132 -16 -353
-189 -545 -430 -258 -322 -563 -848 -723 -1246 -110 -275 -107 -322 22 -437
56 -48 147 -99 158 -88 4 5 13 37 19 72 50 262 178 617 336 933 166 331 439
733 551 812 60 43 78 48 101 32 52 -39 -28 -326 -182 -652 l-58 -123 40 -52
c68 -89 119 -142 130 -135 6 4 35 47 64 95 321 535 867 1183 965 1145 59 -22
-12 -296 -147 -567 l-59 -118 82 -84 c45 -46 90 -84 99 -84 19 0 24 6 204 238
339 438 648 773 773 836 164 84 185 -191 42 -546 -47 -117 -134 -279 -226
-418 -212 -321 -474 -556 -787 -705 -413 -196 -921 -218 -1195 -51 -32 19 -67
45 -77 57 -24 26 -70 51 -79 42 -3 -4 -6 -14 -6 -24 0 -29 122 -323 144 -347
32 -36 191 -109 286 -131 452 -107 933 19 1370 357 109 85 334 310 433 433
273 341 441 768 464 1174 11 200 -32 385 -121 518 -111 167 -318 282 -601 333
-125 22 -485 25 -650 5 -123 -15 -311 -47 -326 -56 -5 -4 -9 -3 -9 2 0 4 17
19 37 33 65 45 230 213 272 280 51 78 75 156 66 210 -15 86 -100 172 -210 211
-48 17 -206 41 -245 38 -8 -1 -55 -6 -105 -10z m195 -307 c64 -32 51 -86 -46
-191 -101 -109 -276 -226 -531 -355 -128 -65 -262 -121 -269 -113 -4 4 51 428
61 478 5 23 20 32 113 67 288 110 581 160 672 114z"/>
</g>
</svg>
