<?xml version="1.0" standalone="no"?>
<!DOCTYPE svg PUBLIC "-//W3C//DTD SVG 20010904//EN"
 "http://www.w3.org/TR/2001/REC-SVG-20010904/DTD/svg10.dtd">
<svg version="1.0" xmlns="http://www.w3.org/2000/svg"
 width="920.000000pt" height="690.000000pt" viewBox="0 0 920.000000 690.000000"
 preserveAspectRatio="xMidYMid meet">

<g transform="translate(0.000000,690.000000) scale(0.100000,-0.100000)"
fill="#000000" stroke="none">
<path d="M4175 6473 c-267 -24 -474 -67 -721 -148 -231 -76 -534 -233 -748
-385 -269 -192 -545 -479 -731 -760 -229 -346 -383 -750 -452 -1190 -14 -92
-18 -174 -18 -410 0 -277 2 -304 28 -452 104 -591 334 -1059 743 -1516 144
-161 391 -366 584 -484 860 -528 1907 -579 2805 -138 184 91 320 174 484 298
129 97 335 292 420 396 123 151 164 205 225 296 472 710 608 1578 376 2398
-101 359 -290 726 -526 1022 -113 142 -365 385 -514 496 -517 386 -1128 588
-1755 582 -88 -1 -178 -3 -200 -5z m545 -103 c556 -70 1071 -297 1489 -656
837 -719 1175 -1845 870 -2903 -98 -341 -284 -700 -506 -976 -100 -124 -326
-346 -453 -444 -405 -314 -849 -502 -1365 -577 -184 -27 -572 -25 -764 5 -562
86 -1042 311 -1473 690 -770 678 -1099 1758 -843 2771 167 658 584 1250 1150
1629 398 267 844 425 1325 471 116 11 453 5 570 -10z"/>
<path d="M4190 6104 c-497 -57 -857 -183 -1225 -429 -557 -372 -951 -961
-1085 -1624 -146 -722 40 -1501 496 -2076 87 -109 109 -135 116 -135 3 0 8 13
11 28 22 110 254 604 409 872 232 400 433 676 640 876 266 257 464 322 536
177 25 -50 32 -79 46 -190 l11 -92 55 66 c89 106 335 347 423 414 113 86 233
142 312 147 72 5 111 -11 149 -61 33 -43 44 -96 53 -246 l8 -124 80 104 c96
126 293 326 395 401 83 62 130 87 208 113 51 16 52 18 37 35 -48 53 -241 129
-401 157 -143 25 -636 25 -814 0 -368 -52 -782 -200 -1056 -376 -58 -37 -61
-42 -68 -87 -3 -26 -6 -68 -6 -95 0 -26 -4 -59 -10 -74 -13 -33 -285 -322
-312 -331 -13 -4 -24 -1 -29 7 -27 42 13 451 101 1038 17 110 30 216 30 236
l0 37 -37 -23 c-80 -48 -352 -234 -448 -305 -149 -111 -182 -129 -212 -115
-38 17 -78 119 -109 274 -26 130 -26 138 -10 156 18 20 207 119 466 245 574
280 1053 434 1405 452 90 5 129 2 214 -15 121 -26 166 -46 232 -108 102 -95
114 -188 43 -324 -40 -75 -208 -262 -307 -341 -27 -21 -44 -38 -38 -38 5 0 75
11 154 25 340 60 773 59 1003 0 393 -103 602 -307 665 -648 16 -89 13 -316 -6
-431 -66 -413 -246 -808 -511 -1126 -79 -95 -349 -363 -434 -431 -234 -188
-569 -350 -830 -403 -141 -28 -317 -39 -447 -26 -199 19 -297 46 -450 124 -70
35 -74 39 -108 106 -51 102 -117 268 -123 312 -7 57 11 52 119 -30 157 -120
414 -175 705 -152 147 12 160 15 309 52 577 146 1052 563 1366 1198 160 324
214 636 124 720 -56 52 -129 8 -340 -204 -191 -191 -314 -335 -590 -686 -184
-234 -215 -270 -230 -270 -20 0 -195 168 -195 187 0 7 23 58 50 113 165 329
242 654 147 624 -156 -49 -636 -625 -996 -1196 -51 -82 -97 -148 -101 -148
-16 0 -180 186 -180 204 0 3 31 74 69 158 130 288 201 503 201 609 0 181 -167
44 -432 -357 -236 -356 -411 -716 -546 -1119 -40 -119 -102 -344 -102 -371 0
-18 156 -134 290 -214 285 -172 629 -290 995 -342 117 -16 513 -16 630 0 481
68 921 254 1280 540 274 218 538 549 700 876 406 822 338 1788 -178 2561 -393
588 -1034 989 -1757 1100 -100 16 -480 28 -560 19z"/>
<path d="M4155 5205 c-135 -29 -255 -64 -374 -109 -146 -55 -133 -34 -165
-259 -39 -287 -42 -327 -23 -327 39 0 339 145 502 243 148 89 221 142 308 226
132 127 158 198 87 233 -51 26 -196 23 -335 -7z"/>
</g>
</svg>
